<svg width="24" height="24" viewBox="0 0 24 24" fill="none" xmlns="http://www.w3.org/2000/svg">
  <path d="M7 7.5C7 8.88071 5.88071 10 4.5 10C3.11929 10 2 8.88071 2 7.5C2 6.11929 3.11929 5 4.5 5C5.88071 5 7 6.11929 7 7.5Z" stroke="#CAA561" stroke-width="1.5"/>
  <path d="M22 7.5C22 8.88071 20.8807 10 19.5 10C18.1193 10 17 8.88071 17 7.5C17 6.11929 18.1193 5 19.5 5C20.8807 5 22 6.11929 22 7.5Z" stroke="#CAA561" stroke-width="1.5"/>
  <path d="M14.5 16.5C14.5 17.8807 13.3807 19 12 19C10.6193 19 9.5 17.8807 9.5 16.5C9.5 15.1193 10.6193 14 12 14C13.3807 14 14.5 15.1193 14.5 16.5Z" stroke="#CAA561" stroke-width="1.5"/>
  <path d="M7 7.5L9.5 16.5M17 7.5L14.5 16.5M7 7.5H17" stroke="#CAA561" stroke-width="1.5" stroke-linecap="round"/>
</svg> 