<svg width="100" height="100" viewBox="0 0 100 100" xmlns="http://www.w3.org/2000/svg">
  <style>
    .diamond-loader {
      transform-origin: center;
      animation: rotate 2s linear infinite;
    }
    
    .segment {
      animation: pulse 1.5s ease-in-out infinite;
      transform-origin: center;
    }
    
    .segment:nth-child(1) { animation-delay: 0s; }
    .segment:nth-child(2) { animation-delay: 0.125s; }
    .segment:nth-child(3) { animation-delay: 0.25s; }
    .segment:nth-child(4) { animation-delay: 0.375s; }
    .segment:nth-child(5) { animation-delay: 0.5s; }
    .segment:nth-child(6) { animation-delay: 0.625s; }
    .segment:nth-child(7) { animation-delay: 0.75s; }
    .segment:nth-child(8) { animation-delay: 0.875s; }
    
    @keyframes rotate {
      0% { transform: rotate(0deg); }
      100% { transform: rotate(360deg); }
    }
    
    @keyframes pulse {
      0%, 100% { opacity: 0.3; }
      50% { opacity: 1; }
    }
  </style>

  <g class="diamond-loader">
    <!-- Diamond-shaped segments arranged in a circle -->
    <path class="segment" d="M50 15L55 25L50 35L45 25Z" fill="#D4AF37" />
    <path class="segment" d="M65 20L70 30L65 40L60 30Z" fill="#D4AF37" />
    <path class="segment" d="M75 35L80 45L75 55L70 45Z" fill="#D4AF37" />
    <path class="segment" d="M80 50L85 60L80 70L75 60Z" fill="#D4AF37" />
    <path class="segment" d="M65 75L70 85L65 95L60 85Z" fill="#D4AF37" />
    <path class="segment" d="M50 80L55 90L50 100L45 90Z" fill="#D4AF37" />
    <path class="segment" d="M35 75L40 85L35 95L30 85Z" fill="#D4AF37" />
    <path class="segment" d="M20 50L25 60L20 70L15 60Z" fill="#D4AF37" />
    
    <!-- Center diamond -->
    <path d="M50 40L55 50L50 60L45 50Z" fill="#D4AF37" fill-opacity="0.8" />
  </g>
</svg> 