<svg xmlns="http://www.w3.org/2000/svg" viewBox="0 0 500 500" width="500" height="500">
  <!-- Diamond with circuit-like elements -->
  <g fill="#A0A0A0" stroke="#808080" stroke-width="2">
    <!-- Main Diamond shape -->
    <path d="M250 50 L50 250 L250 450 L450 250 Z" stroke-width="6" fill="#A0A0A0" stroke="#808080"/>
    <path d="M250 80 L80 250 L250 420 L420 250 Z" stroke-width="4" fill="none" stroke="#909090"/>
    <path d="M250 110 L110 250 L250 390 L390 250 Z" stroke-width="2" fill="none" stroke="#A0A0A0"/>
    
    <!-- Square node at top right with connecting line -->
    <rect x="380" y="80" width="40" height="40" fill="#808080" stroke="#707070"/>
    <line x1="330" y1="130" x2="380" y2="100" stroke="#808080" stroke-width="4"/>
    
    <!-- Square node at mid-right with connecting line -->
    <rect x="400" y="210" width="40" height="40" fill="#808080" stroke="#707070"/>
    <line x1="360" y1="230" x2="400" y2="230" stroke="#808080" stroke-width="4"/>
    
    <!-- Square node at bottom-right with connecting line -->
    <rect x="350" y="350" width="40" height="40" fill="#808080" stroke="#707070"/>
    <line x1="320" y1="330" x2="350" y2="370" stroke="#808080" stroke-width="4"/>
    
    <!-- Square node at mid-point with connecting lines -->
    <rect x="270" y="250" width="30" height="30" fill="#808080" stroke="#707070"/>
    <line x1="300" y1="265" x2="350" y2="300" stroke="#808080" stroke-width="4"/>
    <line x1="300" y1="265" x2="320" y2="200" stroke="#808080" stroke-width="4"/>
  </g>
</svg> 